<svg xmlns="http://www.w3.org/2000/svg" viewBox="0 0 800 500" width="800" height="500" font-family="'Segoe UI', Arial, sans-serif">
  <defs>
    <linearGradient id="bgWeb" x1="0" y1="0" x2="1" y2="1">
      <stop offset="0" stop-color="#0c4a6e"/>
      <stop offset="1" stop-color="#0369a1"/>
    </linearGradient>
  </defs>
  <rect width="800" height="500" fill="url(#bgWeb)"/>
  <circle cx="120" cy="100" r="150" fill="#ffffff" opacity="0.05"/>
  <circle cx="710" cy="440" r="130" fill="#ffffff" opacity="0.05"/>

  <text x="50" y="68" fill="#7dd3fc" font-size="20" font-weight="700" letter-spacing="2">BANK LAMPUNG</text>
  <text x="50" y="116" fill="#ffffff" font-size="40" font-weight="800">Company Website</text>
  <rect x="50" y="134" width="90" height="4" rx="2" fill="#38bdf8"/>

  <!-- Browser window -->
  <rect x="50" y="165" width="700" height="285" rx="14" fill="#ffffff"/>
  <rect x="50" y="165" width="700" height="44" rx="14" fill="#e0f2fe"/>
  <rect x="50" y="190" width="700" height="19" fill="#e0f2fe"/>
  <circle cx="78" cy="187" r="7" fill="#fca5a5"/>
  <circle cx="102" cy="187" r="7" fill="#fde047"/>
  <circle cx="126" cy="187" r="7" fill="#86efac"/>
  <rect x="170" y="176" width="420" height="22" rx="11" fill="#ffffff"/>
  <text x="186" y="192" fill="#0369a1" font-size="13" font-family="monospace">https://banklampung.co.id</text>

  <!-- Hero strip -->
  <rect x="74" y="230" width="652" height="86" rx="10" fill="#0369a1"/>
  <text x="98" y="268" fill="#ffffff" font-size="20" font-weight="800">Bank Lampung Digital</text>
  <text x="98" y="294" fill="#bae6fd" font-size="14">Produk · Suku Bunga · Layanan</text>
  <rect x="560" y="252" width="140" height="40" rx="8" fill="#38bdf8"/>
  <text x="630" y="277" fill="#0c4a6e" font-size="14" font-weight="700" text-anchor="middle">Buka Rekening</text>

  <!-- Feature tiles -->
  <g>
    <rect x="74" y="330" width="205" height="100" rx="10" fill="#f0f9ff"/>
    <circle cx="108" cy="364" r="18" fill="#0ea5e9"/>
    <text x="108" y="370" fill="#fff" font-size="18" text-anchor="middle" font-weight="800">%</text>
    <text x="138" y="360" fill="#0c4a6e" font-size="15" font-weight="700">Suku Bunga</text>
    <text x="138" y="382" fill="#475569" font-size="12">Update tabel bunga</text>
    <text x="138" y="400" fill="#475569" font-size="12">tabungan &amp; giro</text>

    <rect x="298" y="330" width="205" height="100" rx="10" fill="#f0f9ff"/>
    <circle cx="332" cy="364" r="18" fill="#22c55e"/>
    <text x="332" y="371" fill="#fff" font-size="18" text-anchor="middle">★</text>
    <text x="362" y="360" fill="#0c4a6e" font-size="15" font-weight="700">Undian Sipemda</text>
    <text x="362" y="382" fill="#475569" font-size="12">Program undian</text>
    <text x="362" y="400" fill="#475569" font-size="12">nasabah Sipemda</text>

    <rect x="522" y="330" width="204" height="100" rx="10" fill="#f0f9ff"/>
    <circle cx="556" cy="364" r="18" fill="#6366f1"/>
    <text x="556" y="370" fill="#fff" font-size="15" text-anchor="middle" font-weight="800">L</text>
    <text x="586" y="360" fill="#0c4a6e" font-size="15" font-weight="700">L-Save</text>
    <text x="586" y="382" fill="#475569" font-size="12">Produk tabungan</text>
    <text x="586" y="400" fill="#475569" font-size="12">L-Save Bank Lampung</text>
  </g>
</svg>
