<svg xmlns="http://www.w3.org/2000/svg" viewBox="0 0 800 500" width="800" height="500" font-family="'Segoe UI', Arial, sans-serif">
  <defs>
    <linearGradient id="bgWns" x1="0" y1="0" x2="1" y2="1">
      <stop offset="0" stop-color="#7c2d12"/>
      <stop offset="1" stop-color="#b45309"/>
    </linearGradient>
  </defs>
  <rect width="800" height="500" fill="url(#bgWns)"/>
  <circle cx="690" cy="100" r="150" fill="#ffffff" opacity="0.05"/>
  <circle cx="120" cy="440" r="120" fill="#ffffff" opacity="0.05"/>

  <text x="50" y="70" fill="#fcd34d" font-size="20" font-weight="700" letter-spacing="2">BANK LAMPUNG · NOTIFLOW</text>
  <text x="50" y="120" fill="#ffffff" font-size="44" font-weight="800">WNS</text>
  <text x="50" y="152" fill="#fde68a" font-size="20">Warning Notification System</text>
  <rect x="50" y="170" width="90" height="4" rx="2" fill="#fbbf24"/>

  <!-- Big bell icon -->
  <g transform="translate(95,230)">
    <circle cx="60" cy="90" r="92" fill="#ffffff" opacity="0.08"/>
    <path d="M60 30 a40 40 0 0 1 40 40 v28 l16 22 h-112 l16 -22 v-28 a40 40 0 0 1 40 -40z" fill="#fbbf24"/>
    <rect x="54" y="20" width="12" height="14" rx="6" fill="#fbbf24"/>
    <path d="M46 130 a14 14 0 0 0 28 0z" fill="#fbbf24"/>
    <!-- alert badge -->
    <circle cx="112" cy="40" r="22" fill="#ef4444" stroke="#7c2d12" stroke-width="4"/>
    <text x="112" y="48" fill="#fff" font-size="24" font-weight="800" text-anchor="middle">!</text>
  </g>

  <!-- Notification feed -->
  <g>
    <rect x="320" y="208" width="430" height="62" rx="10" fill="#ffffff" opacity="0.95"/>
    <circle cx="352" cy="239" r="16" fill="#22c55e"/>
    <text x="346" y="245" fill="#fff" font-size="16">@</text>
    <text x="382" y="234" fill="#1c1917" font-size="16" font-weight="700">Email Notification</text>
    <text x="382" y="256" fill="#57534e" font-size="13">Audit alert terkirim · status OK</text>

    <rect x="320" y="282" width="430" height="62" rx="10" fill="#ffffff" opacity="0.95"/>
    <circle cx="352" cy="313" r="16" fill="#0ea5e9"/>
    <path d="M345 313 l14 -5 -4 12 -4 -5z" fill="#fff"/>
    <text x="382" y="308" fill="#1c1917" font-size="16" font-weight="700">Telegram Bot</text>
    <text x="382" y="330" fill="#57534e" font-size="13">Pelaporan otomatis real-time</text>

    <rect x="320" y="356" width="430" height="62" rx="10" fill="#ffffff" opacity="0.95"/>
    <circle cx="352" cy="387" r="16" fill="#f59e0b"/>
    <text x="346" y="393" fill="#fff" font-size="18" font-weight="800">⚙</text>
    <text x="382" y="382" fill="#1c1917" font-size="16" font-weight="700">Java Service</text>
    <text x="382" y="404" fill="#57534e" font-size="13">Kebutuhan audit &amp; compliance</text>
  </g>
</svg>
